<svg height="128" viewBox="0 0 400 128" width="400" xmlns="http://www.w3.org/2000/svg" xmlns:xlink="http://www.w3.org/1999/xlink"><mask id="a" fill="#fff"><path d="m33.6754929 39.8093726v-39.3041509h-33.35314217v39.3041509z" fill="#fff" fill-rule="evenodd"/></mask><mask id="b" fill="#fff"><path d="m0 65h336.315222v-65h-336.315222z" fill="#fff" fill-rule="evenodd"/></mask><g fill="#31b67b" fill-rule="evenodd" transform="translate(32 35)"><path d="m116.350784 14.3284717-9.201097 24.6521698h18.402194zm15.487997 42.560283-3.75722-9.9229245h-23.461554l-3.757221 9.9229245h-10.1975636l20.0882426-51.70749998h11.194638l20.088242 51.70749998z"/><path d="m173.472304 46.647434v-14.8843868c-1.840704-2.7907076-5.750155-5.0387264-9.5844-5.0387264-6.363925 0-10.427424 5.1944811-10.427424 12.4812264 0 7.2100943 4.063499 12.403349 10.427424 12.403349 3.834245 0 7.743696-2.1707547 9.5844-4.9614622zm0 11.2413207v-5.1166038c-2.837171 3.7209434-7.130531 6.0468397-11.884219 6.0468397-9.507982 0-16.485071-7.2873585-16.485071-19.6134434 0-12.0936793 6.900671-19.6907076 16.485071-19.6907076 4.600245 0 8.893605 2.1707547 11.884219 6.1241038v-19.45768868h8.050581v51.70749998z"/><path d="m243.520362 57.8885094v-22.5592924h-26.605611v22.5592924h-8.971236v-51.70749997h8.971236v21.16363207h26.605611v-21.16363207h8.971236v51.70749997z"/><path d="m288.776767 39.1280991c0-6.5895283-3.833638-12.4033491-10.733703-12.4033491-6.824253 0-10.658498 5.8138208-10.658498 12.4033491 0 6.6667924 3.834245 12.4806132 10.658498 12.4806132 6.900065 0 10.733703-5.8138208 10.733703-12.4806132m-29.74906 0c0-10.6986321 7.283974-19.6134434 19.015357-19.6134434 11.884219 0 19.091776 8.9148113 19.091776 19.6134434 0 10.775283-7.207557 19.6907075-19.091776 19.6907075-11.731383 0-19.015357-8.9154245-19.015357-19.6907075"/><path d="m.32235073 20.1186651c0-11.3179717 7.8971381-19.6134434 19.16880017-19.6134434 7.2075562 0 11.5773342 3.10099056 14.1846452 6.66740566l-5.29104 4.96146224c-2.0699587-2.94646224-4.9071304-4.41877356-8.510302-4.41877356-6.7478349 0-11.1946375 5.11599056-11.1946375 12.40334906s4.4468026 12.4806132 11.1946375 12.4806132c3.6031716 0 6.4403433-1.5501887 8.510302-4.4187736l5.29104 4.9614623c-2.607311 3.5664151-6.977089 6.6674056-14.1846452 6.6674056-11.27166207 0-19.16880017-8.2954717-19.16880017-19.6907075" mask="url(#a)" transform="translate(302.639729 19.009434)"/><path d="m48.516363 15.9464623h15.7718359v-15.9464623h-15.7718359z" mask="url(#b)"/><path d="m48.5164236 42.2151085h-10.2090873v-15.9464623h-15.771836v-10.3221226h15.771836v-15.94646228h-38.30727565v64.99999998h64.28819895v-38.7314151h-15.771836z" mask="url(#b)"/></g></svg>