<svg height="285" viewBox="0 0 1023 285" width="1023" xmlns="http://www.w3.org/2000/svg"><g fill="#436cf2" fill-rule="evenodd"><path d="m.19490366 145.162129c0-78.0305432 57.89722714-141.3041568 140.88136534-141.3041568 50.948185 0 81.439458 17.0811915 106.526369 41.9241577l-37.824463 43.86816c-20.843082-19.0211268-42.070313-30.6668391-69.088076-30.6668391-45.5458456 0-78.3541395 38.0422536-78.3541395 84.6230692 0 47.359637 32.0359535 86.180712 78.3541395 86.180712 30.877443 0 49.789674-12.420467 71.018927-31.829987l37.824463 38.428614c-27.790103 29.890051-58.667545 48.526851-110.774241 48.526851-79.5106284 0-138.56434434-61.726139-138.56434434-139.750581z"/><path d="m254.931785.93790184h58.667546v283.38306716h-58.667546z"/><path d="m422.438677 115.658437c-24.316592 0-40.141484 17.467552-44.773505 44.254521h88.3885c-3.47351-26.396542-18.912232-44.254521-43.614995-44.254521m99.967541 81.133627h-143.968705c5.790531 26.782901 24.316592 40.758976 50.564036 40.758976 19.68255 0 33.964783-6.210233 50.175845-21.351489l33.578612 29.894118c-19.298401 24.066179-47.088504 38.819041-84.526797 38.819041-62.143078 0-108.073072-43.86816-108.073072-107.530167v-.776788c0-59.393743 42.070314-108.3069544 102.28254-108.3069544 69.090098 0 100.739882 53.9602974 100.739882 112.9656464v.776788c0 5.821839-.386171 9.315349-.772341 14.750829"/><path d="m634.75749 283.839035h-53.261163l-81.443501-209.6248551h62.143078l46.316164 139.3621881 46.702334-139.3621881h60.986589z"/><path d="m792.219913 115.658437c-24.316593 0-40.141485 17.467552-44.773505 44.254521h88.386478c-3.471489-26.396542-18.91021-44.254521-43.612973-44.254521m99.967541 81.133627h-143.970728c5.792554 26.782901 24.318615 40.758976 50.564037 40.758976 19.684572 0 33.966804-6.210233 50.177866-21.351489l33.578613 29.894118c-19.298402 24.066179-47.088505 38.819041-84.52882 38.819041-62.141055 0-108.073071-43.86816-108.073071-107.530167v-.776788c0-59.393743 42.072335-108.3069544 102.284562-108.3069544 69.090098 0 100.737859 53.9602974 100.737859 112.9656464v.776788c0 5.821839-.384148 9.315349-.770318 14.750829"/><path d="m1019.55488 134.087823c-38.984992 0-62.915415 23.679818-62.915415 73.369818v76.863328h-58.665524v-208.073314h58.665524v41.924158c11.965212-28.7269041 31.263613-47.3596371 66.002755-45.8080956v61.7241056z"/></g></svg>