<svg height="20" viewBox="0 0 155 20" width="155" xmlns="http://www.w3.org/2000/svg"><path d="m248 25.0071334-5.992867 5.9928666 5.992867 5.9928666-4.007133 4.0071334-5.992867-5.9928666-5.992867 5.9928666-4.007133-4.0071334 5.992867-5.9928666-5.992867-5.9928666 4.007133-4.0071334 5.992867 5.9928666 5.992867-5.9928666zm-144.808336 4.5879833h9.723282c.055542.2756705.082899.9090909.082899 1.6254197.110257 5.6199478-4.021869 9.7794636-9.861309 9.7794636-5.7843125 0-10.136536-4.1043817-10.136536-10.0273598 0-5.8678439 4.2970953-9.9726402 10.246792-9.9726402 3.00262 0 5.729184 1.0471334 7.877939 3.4440161l-4.131711 3.2781992c-.991478-1.101853-2.176111-1.7079136-3.773585-1.7079136-2.91972 0-4.8206054 2.0383037-4.8206054 4.9856983 0 2.9200348 1.8731144 4.9865274 4.8757334 4.9865274 1.982956 0 3.195362-.9090909 3.828714-2.2866145h-3.911613zm11.171972-5.867844h5v17.2727273h-5zm20.677615 5.8774757c0 2.4981477-1.251249 4.4470812-3.437604 5.3643993l4.123626 6.0308523h-5.545652l-3.388037-5.4934038h-1.336638v5.4934038h-4.729673v-17.2727273h7.955265c3.862879 0 6.358713 2.3073725 6.358713 5.8774757zm-6.527824 1.4719952c1.064229 0 1.604049-.4870233 1.604049-1.4472028 0-.976988-.53982-1.4719953-1.604049-1.4719953h-3.056481v2.9191981zm13.016504-7.3494709v12.8432949h8.288251v4.4294324h-13.181818v-17.2727273zm24.389014 5.867844h9.723289c.055128.2756705.0829.9090909.0829 1.6254197.109842 5.6199478-4.021872 9.7794636-9.861317 9.7794636-5.784317 0-10.136544-4.1043817-10.136544-10.0273598 0-5.8678439 4.297098-9.9726402 10.246385-9.9726402 3.002623 0 5.729604 1.0471334 7.877946 3.4440161l-4.131714 3.2781992c-.991479-1.101853-2.175699-1.7079136-3.773588-1.7079136-2.919723 0-4.82061 2.0383037-4.82061 4.9856983 0 2.9200348 1.87353 4.9865274 4.875738 4.9865274 1.983372 0 3.195363-.9090909 3.828716-2.2866145h-3.911201zm15.978598 4.8857472v2.0897037h8.82973v4.4294324h-13.636364v-17.2727273h13.43995v4.4302728h-8.633316v1.893886h8.239642v4.4294324zm14.545305 0v2.0897037h8.829879v4.4294324h-13.636363v-17.2727273h13.439532v4.4302728h-8.633048v1.893886h8.239386v4.4294324zm25.457934-10.7535912-6.470989 7.8091805 7.115662 9.4635468h-5.671947l-4.357919-5.9732835-1.583024 1.9350665v4.038217h-4.750747v-17.2727273h4.750747v6.4069401l5.287904-6.4069401z" fill="#744287" fill-rule="evenodd" transform="translate(-93 -21)"/></svg>