<svg enable-background="new 0 0 1394.8187 360" viewBox="0 0 1394.8187 360" xmlns="http://www.w3.org/2000/svg"><g fill="#8c898b"><path d="m1294.7076 92.9695c57.4227 0 100.1111 41.7643 100.1111 100.3864 0 58.6246-42.6884 100.3876-100.1111 100.3876-57.4226 0-100.1111-41.763-100.1111-100.3876.0001-58.6221 42.6885-100.3864 100.1111-100.3864zm0 40.2312c-35.0599 0-59.9911 24.522-59.9911 60.1552 0 35.6345 24.9312 60.1577 59.9911 60.1577 35.0601 0 59.9911-24.5233 59.9911-60.1577 0-35.6332-24.931-60.1552-59.9911-60.1552z"/><path d="m1148.3241 19.3265c15.3856 0 26.8235 11.1902 26.8235 26.8972 0 15.7077-11.4379 26.8976-26.8235 26.8976-15.3857 0-26.8235-11.1899-26.8235-26.8976 0-15.707 11.4378-26.8972 26.8235-26.8972z"/><path d="m1168.9576 101.5787v183.557c0 2.2061-1.7999 4.0111-4 4.0111h-33.2672c-2.2 0-4-1.805-4-4.0111v-183.557c0-2.2061 1.8-4.0111 4-4.0111h33.2672c2.2001 0 4 1.805 4 4.0111z"/><path d="m1051.311 291.0619c-35.1517 0-54.2577-15.7105-54.2577-57.8555v-100.389h-21.4325c-2.2 0-4-1.805-4-4.0111v-27.2276c0-2.2061 1.8-4.0111 4-4.0111h21.4325v-47.3326c0-2.2061 1.8-4.0111 4-4.0111h33.2672c2.2001 0 4 1.805 4 4.0111v47.3325h46.4381c2.2 0 4 1.805 4 4.0111v27.2276c0 2.2061-1.8 4.0111-4 4.0111h-46.4381v97.7047c0 13.4108 5.7322 20.3073 20.6324 20.3073 8.6185 0 15.2247-.8643 24.8055-2.3436 2.5354-.3915 4.6165 1.3905 4.6165 3.9629l.0001 30.1963c0 1.7101-1.3521 3.4507-3.0007 3.8879-11.016 2.9215-22.8594 4.5291-34.0633 4.5291z"/><path d="m862.0698 224.7756-48.4726 62.8148c-.6605.856-2.0841 1.5564-3.1635 1.5564h-39.916c-4.4982 0-5.9191-2.9132-3.1573-6.4738l69.8713-90.0824-68.7199-88.5485c-2.7636-3.561-1.3431-6.4746 3.1567-6.4746h40.2998c1.0748 0 2.4946.6956 3.1553 1.5458l47.3271 60.909 46.9437-60.8969c.6606-.8569 2.0847-1.558 3.1647-1.558h39.915c4.4967 0 5.9178 2.9128 3.1581 6.4729l-68.3461 88.1669 69.8959 90.4718c2.7482 3.5572 1.3253 6.4677-3.1621 6.4677h-40.3167c-1.0793 0-2.503-.7004-3.1635-1.5564z"/><path d="m670.7077 92.9695c59.2253 0 92.8507 41.7643 92.8507 101.1529v7.8666c0 2.2061-1.8 4.0111-4 4.0111h-142.7275v.3833c3.8222 32.5682 29.8057 48.6607 57.3155 48.6607 23.0632 0 40.6932-9.2927 53.7678-21.4309 1.9838-1.8418 4.7641-1.3923 6.1313.9464l15.2927 26.159c.9008 1.5409.566 3.7838-.7458 4.9921-15.7562 14.5125-39.8972 28.0327-74.0626 28.0327-61.1377 0-99.7307-40.6145-99.7307-99.6211.0001-56.3235 37.0642-101.1528 95.9086-101.1528zm-.7645 36.783c-30.1866 0-47.7612 17.2423-52.7288 44.8292h101.2571c-2.6743-26.4383-18.7225-44.8292-48.5283-44.8292z"/><path d="m519.6802 291.0619c-35.1543 0-54.2577-15.7105-54.2577-57.8555v-100.389h-21.4325c-2.2 0-4-1.805-4-4.0111v-27.2276c0-2.2061 1.8-4.0111 4-4.0111h21.4325v-47.3326c0-2.2061 1.8-4.0111 4-4.0111h33.2673c2.2 0 4 1.805 4 4.0111v47.3325h46.4355c2.2 0 4 1.805 4 4.0111v27.2276c0 2.2061-1.8 4.0111-4 4.0111h-46.4355v97.7047c0 13.4108 5.7295 20.3073 20.6324 20.3073 8.6188 0 15.2231-.8643 24.8057-2.3437 2.5353-.3914 4.6164 1.3905 4.6164 3.9629l.0001 30.1964c0 1.7102-1.3521 3.4507-3.0008 3.888-11.0165 2.9214-22.8619 4.529-34.0634 4.529z"/></g><path d="m81.0024 80.2597c23.0042-23.0682 52.0223-36.4292 81.9935-40.085 4.0024-.4882 7.0015-3.9093 7.0015-7.9524v-24.1908c0-4.7616-4.114-8.4834-8.8365-7.9871-59.8873 6.2936-112.7731 42.3287-140.6627 95.8427-2.1996 4.2205-.2634 9.4272 4.152 11.1802l22.4271 8.9042c3.7547 1.4907 8.0259-.0588 9.9581-3.6146 6.2606-11.5206 14.2455-22.3487 23.967-32.0972z" fill="#d94c92"/><path d="m39.7271 134.6236-22.4408-8.9096c-4.4152-1.753-9.3806.713-10.6587 5.2992-16.207 58.1574-2.257 120.7345 37.1033 166.4357 3.1038 3.6038 8.6435 3.7149 11.8941.2437l16.5225-17.6436c2.755-2.942 2.919-7.4941.3375-10.5904-29.7309-35.6595-39.048-82.6336-27.9591-125.3905 1.0137-3.9086-1.0542-7.9577-4.7988-9.4445z" fill="#45b5e6"/><path d="m278.9926 278.8004c-49.533 49.6704-126.9414 54.3307-181.7167 13.9999-3.256-2.3974-7.7843-1.9747-10.5494.9781l-16.5235 17.6447c-3.2486 3.4691-2.7929 9.0031.9842 11.8842 72.449 55.2632 176.2996 47.7708 239.9837-20.2347 11.2127-11.9736 20.7151-25.4077 28.2766-39.912 2.2016-4.223.2693-9.4323-4.149-11.1865l-22.3808-8.8858c-3.7547-1.4907-8.0259.0588-9.9582 3.6146-6.2606 11.5209-14.2455 22.3489-23.9669 32.0975z" fill="#97c728"/><path d="m278.9926 80.2597c36.414 36.5156 48.5662 88.1393 36.4727 134.7473-1.0126 3.9027 1.0645 7.945 4.8036 9.4295l22.4071 8.8963c4.4123 1.7518 9.3755-.7101 10.6566-5.2922 24.5739-87.8945-20.6032-181.9672-107.1038-216.3105-15.22-6.0429-31.164-9.956-47.3856-11.6682-4.7263-.4989-8.8457 3.2207-8.8457 7.9863v24.1736c0 4.0431 2.9991 7.4642 7.0015 7.9524 29.971 3.656 58.9892 17.0174 81.9936 40.0855z" fill="#fa8926"/></svg>